<?xml version="1.0" encoding="UTF-8" standalone="no"?>
<svg
   viewBox="0 0 32 32"
   version="1.1"
   id="svg4"
   sodipodi:docname="favicon.svg"
   inkscape:version="1.2.1 (9c6d41e410, 2022-07-14, custom)"
   width="32"
   height="32"
   xmlns:inkscape="http://www.inkscape.org/namespaces/inkscape"
   xmlns:sodipodi="http://sodipodi.sourceforge.net/DTD/sodipodi-0.dtd"
   xmlns="http://www.w3.org/2000/svg"
   xmlns:svg="http://www.w3.org/2000/svg">
  <defs
     id="defs8" />
  <sodipodi:namedview
     id="namedview6"
     pagecolor="#ffffff"
     bordercolor="#000000"
     borderopacity="0.25"
     inkscape:showpageshadow="2"
     inkscape:pageopacity="0.0"
     inkscape:pagecheckerboard="0"
     inkscape:deskcolor="#d1d1d1"
     showgrid="false"
     inkscape:zoom="4.0117187"
     inkscape:cx="20.440117"
     inkscape:cy="52.84518"
     inkscape:window-width="1130"
     inkscape:window-height="1375"
     inkscape:window-x="1412"
     inkscape:window-y="47"
     inkscape:window-maximized="1"
     inkscape:current-layer="svg4" />
  <!--! Font Awesome Pro 6.2.0 by @fontawesome - https://fontawesome.com License - https://fontawesome.com/license (Commercial License) Copyright 2022 Fonticons, Inc. -->
  <path
     d="M 8.45,7.3375 6.81875,12 h 18.3625 L 23.55,7.3375 C 23.26875,6.5375 22.5125,6 21.6625,6 H 10.3375 C 9.4875,6 8.73125,6.5375 8.45,7.3375 Z M 2.475,12.3 4.675,6.01875 C 5.51875,3.6125 7.7875,2 10.3375,2 h 11.325 c 2.55,0 4.81875,1.6125 5.6625,4.01875 L 29.525,12.3 C 30.975,12.9 32,14.33125 32,16 v 9 3 c 0,1.10625 -0.89375,2 -2,2 h -2 c -1.10625,0 -2,-0.89375 -2,-2 V 25 H 6 v 3 c 0,1.10625 -0.89375,2 -2,2 H 2 C 0.89375,30 0,29.10625 0,28 V 25 16 C 0,14.33125 1.025,12.9 2.475,12.3 Z M 8,18 c 0,-1.10625 -0.89375,-2 -2,-2 -1.10625,0 -2,0.89375 -2,2 0,1.10625 0.89375,2 2,2 1.10625,0 2,-0.89375 2,-2 z m 18,2 c 1.10625,0 2,-0.89375 2,-2 0,-1.10625 -0.89375,-2 -2,-2 -1.10625,0 -2,0.89375 -2,2 0,1.10625 0.89375,2 2,2 z"
     id="path2"
     style="fill:#808080;stroke-width:0.0625" />
</svg>
